<?xml version="1.0" standalone="no"?>
<!DOCTYPE svg PUBLIC "-//W3C//DTD SVG 20010904//EN"
 "http://www.w3.org/TR/2001/REC-SVG-20010904/DTD/svg10.dtd">
<svg version="1.0" xmlns="http://www.w3.org/2000/svg"
 width="1024.000000pt" height="1024.000000pt" viewBox="0 0 1024.000000 1024.000000"
 preserveAspectRatio="xMidYMid meet">

<g transform="translate(0.000000,1024.000000) scale(0.100000,-0.100000)"
fill="#000000" stroke="none">
<path d="M4925 8620 c-287 -19 -646 -92 -930 -191 -635 -219 -1216 -633 -1601
-1141 -288 -379 -530 -872 -633 -1293 -79 -319 -96 -473 -96 -860 1 -354 10
-458 61 -710 58 -290 135 -509 284 -810 190 -383 349 -611 630 -899 584 -597
1316 -957 2120 -1042 195 -20 602 -15 790 10 289 39 601 119 810 208 778 329
1359 843 1760 1556 316 563 468 1223 430 1874 -28 501 -127 885 -340 1333
-183 383 -408 696 -711 990 -320 310 -681 546 -1105 723 -459 192 -990 283
-1469 252z m385 -560 c475 -33 922 -189 1342 -466 239 -158 415 -311 591 -514
98 -114 254 -336 302 -431 l25 -49 -252 0 -253 1 -90 105 c-335 394 -802 691
-1278 813 -225 58 -353 75 -572 75 -497 0 -913 -125 -1317 -396 -169 -113
-414 -341 -529 -493 -274 -360 -438 -733 -527 -1195 -24 -126 -26 -156 -27
-446 -1 -295 -2 -312 -22 -340 -11 -16 -73 -117 -138 -224 -129 -212 -146
-239 -157 -240 -13 0 -76 219 -102 350 -39 200 -49 336 -43 614 4 210 9 275
31 401 120 688 461 1304 962 1742 361 314 772 523 1237 627 287 65 540 85 817
66z m355 -1222 c4 -84 5 -598 3 -1143 -5 -1092 -1 -1033 -69 -1167 -77 -153
-268 -267 -446 -268 l-23 0 0 215 0 215 -576 -2 -576 -3 -55 -90 c-151 -245
-260 -424 -413 -675 -91 -151 -182 -299 -201 -327 l-34 -53 -288 0 -289 0 28
48 c45 78 287 475 513 842 489 792 1102 1785 1205 1950 40 63 141 226 226 363
l153 247 418 0 417 0 7 -152z m1100 -1278 c0 -910 -1 -992 -18 -1079 -52 -269
-169 -514 -344 -716 -224 -260 -527 -440 -878 -523 -101 -24 -128 -26 -335
-27 -183 0 -241 3 -310 19 -201 44 -387 122 -554 233 -94 63 -237 187 -256
223 -9 17 52 125 206 363 l65 100 107 -110 c147 -151 256 -221 440 -283 247
-82 536 -60 777 60 273 135 470 382 557 698 21 75 22 97 27 1045 5 845 8 969
21 977 9 6 115 9 255 7 l240 -2 0 -985z m1098 293 c165 -691 96 -1382 -197
-1998 -356 -747 -973 -1284 -1756 -1530 -236 -74 -426 -105 -695 -112 -479
-13 -880 68 -1282 258 -238 112 -511 292 -664 437 l-64 61 328 1 327 0 143
-74 c344 -180 685 -259 1112 -259 229 0 321 11 526 63 390 97 785 326 1089
630 320 318 549 738 647 1185 l27 120 3 683 4 682 209 0 208 0 35 -147z"/>
<path d="M5098 6480 c-15 -20 -203 -317 -417 -660 l-391 -625 417 -3 c229 -1
418 -1 420 1 2 2 2 300 1 663 l-3 659 -27 -35z"/>
</g>
</svg>
